<?xml version="1.0" encoding="utf-8"?>
<!-- Generator: Adobe Illustrator 23.0.3, SVG Export Plug-In . SVG Version: 6.00 Build 0)  -->
<svg version="1.1" id="Capa_1" xmlns="http://www.w3.org/2000/svg" xmlns:xlink="http://www.w3.org/1999/xlink" x="0px" y="0px"
	 viewBox="0 0 8 14.9" style="enable-background:new 0 0 8 14.9;" xml:space="preserve">
<style type="text/css">
	.st0{fill:#7B7B7B;}
</style>
<title>Recurso 3</title>
<g>
	<g id="Contenido">
		<path class="st0" d="M0.4,0.3C0.1,0.5,0,0.9,0,1.2S0.1,1.8,0.3,2l4.9,5.4l-4.9,5.4C0.1,13.1,0,13.4,0,13.7s0.1,0.7,0.4,0.9
			c0.2,0.2,0.5,0.3,0.9,0.3c0.3,0,0.6-0.2,0.8-0.4l5.6-6.2c0.4-0.5,0.4-1.1,0-1.6L2.1,0.4C1.9,0.2,1.6,0,1.3,0
			C0.9,0,0.6,0.1,0.4,0.3z"/>
	</g>
</g>
</svg>
