<?xml version="1.0" encoding="utf-8"?>
<!-- Generator: Adobe Illustrator 23.0.3, SVG Export Plug-In . SVG Version: 6.00 Build 0)  -->
<svg version="1.1" id="Capa_1" xmlns="http://www.w3.org/2000/svg" xmlns:xlink="http://www.w3.org/1999/xlink" x="0px" y="0px"
	 viewBox="0 0 8 14.9" style="enable-background:new 0 0 8 14.9;" xml:space="preserve">
<style type="text/css">
	.st0{fill:#303030;}
</style>
<title>Recurso 3</title>
<g>
	<g id="Contenido">
		<path class="st0" d="M11.1,3.8c-0.2-0.3-0.6-0.4-0.9-0.4c-0.3,0-0.6,0.1-0.8,0.3L4,8.6l-5.4-4.9c-0.2-0.2-0.5-0.3-0.8-0.3
			c-0.3,0-0.7,0.1-0.9,0.4c-0.2,0.2-0.3,0.5-0.3,0.9C-3.4,5-3.3,5.3-3,5.5l6.2,5.6c0.5,0.4,1.1,0.4,1.6,0L11,5.5
			c0.2-0.2,0.4-0.5,0.4-0.8C11.4,4.4,11.3,4.1,11.1,3.8z"/>
	</g>
</g>
</svg>
