<?xml version="1.0" encoding="utf-8"?>
<!-- Generator: Adobe Illustrator 23.0.1, SVG Export Plug-In . SVG Version: 6.00 Build 0)  -->
<svg version="1.1" id="Capa_1" xmlns="http://www.w3.org/2000/svg" xmlns:xlink="http://www.w3.org/1999/xlink" x="0px" y="0px"
	 viewBox="0 0 150 150" style="enable-background:new 0 0 150 150;" xml:space="preserve">
<style type="text/css">
	.st0{fill:#FFFFFF;}
</style>
<g>
	<g>
		<path class="st0" d="M75,111.77L75,111.77c-0.78,0-1.51-0.38-1.96-1.02l-35.4-50.82c-0.51-0.73-0.57-1.68-0.16-2.47
			c0.41-0.79,1.22-1.28,2.11-1.28h16.81V8.04c0-1.32,1.07-2.38,2.38-2.38h32.42c1.32,0,2.38,1.07,2.38,2.38v48.14h16.81
			c0.89,0,1.71,0.49,2.11,1.28c0.41,0.79,0.35,1.74-0.16,2.47l-35.41,50.82C76.51,111.39,75.78,111.77,75,111.77z M44.17,60.95
			L75,105.21l30.84-44.27H91.21c-1.32,0-2.38-1.07-2.38-2.38V10.42H61.17v48.14c0,1.32-1.07,2.38-2.38,2.38H44.17z"/>
	</g>
	<g>
		<path class="st0" d="M146.33,144.35H3.67c-1.32,0-2.38-1.07-2.38-2.38V91.86c0-1.32,1.07-2.38,2.38-2.38
			c1.32,0,2.38,1.07,2.38,2.38v47.72h137.88V91.86c0-1.32,1.07-2.38,2.38-2.38c1.32,0,2.38,1.07,2.38,2.38v50.11
			C148.71,143.28,147.65,144.35,146.33,144.35z"/>
	</g>
</g>
</svg>
