<?xml version="1.0" encoding="utf-8"?>
<!-- Generator: Adobe Illustrator 23.0.1, SVG Export Plug-In . SVG Version: 6.00 Build 0)  -->
<svg version="1.1" xmlns="http://www.w3.org/2000/svg" xmlns:xlink="http://www.w3.org/1999/xlink" x="0px" y="0px"
	 viewBox="0 0 1024 1024" style="enable-background:new 0 0 1024 1024;" xml:space="preserve">
<style type="text/css">
	.st0{fill:none;stroke:#676767;stroke-width:2;stroke-miterlimit:10;}
	.st1{fill:#7C7C7C;}
	.st2{fill:none;stroke:#FFFFFF;stroke-width:2;stroke-miterlimit:10;}
	.st3{fill:#FFFFFF;}
	.st4{fill:#FFFFFF;stroke:#FFFFFF;stroke-miterlimit:10;}
	.st5{fill:#676767;}
</style>
<g id="Reposteria">
</g>
<g id="Cafés">
</g>
<g id="Cereales">
	<circle class="st0" cx="512" cy="512" r="508"/>
	<g id="dYjx93_3_">
		<g>
			<path class="st1" d="M755.19,439.58c-38.33,38.93-86.15,38.89-119.33,21.69c-6.96-3.61-13.57-8.16-19.7-13.07
				c-12.51-10.03-12.3-15.82,0.07-26.56c39.4-34.23,100.87-30.93,136.57,7.33c0.7,0.75,1.59,1.32,2.39,1.98
				C755.19,433.82,755.19,436.7,755.19,439.58z"/>
			<path class="st1" d="M593.06,268.81c44.61,41.51,40.68,103.98,8.98,139.66c-10.68,12.02-15.64,12.08-25.86,0.23
				c-32.55-37.76-32.23-93.88,0.87-131.34c2.81-3.17,6.33-5.72,9.52-8.55C588.74,268.81,590.9,268.81,593.06,268.81z"/>
			<path class="st1" d="M268.81,729.25c14.91-15.47,29.76-31,44.76-46.38c9.53-9.77,19.06-19.56,29.05-28.85
				c7.8-7.25,14.59-6.25,23.38,2.29c9.54,9.27,11.57,16.86,4.4,24.12c-24.92,25.22-50.39,49.88-75.66,74.76c-2.88,0-5.76,0-8.65,0
				c-5.76-5.76-11.53-11.53-17.29-17.29C268.81,735.02,268.81,732.13,268.81,729.25z"/>
			<path class="st1" d="M268.81,737.9c5.76,5.76,11.53,11.53,17.29,17.29c-5.76,0-11.53,0-17.29,0
				C268.81,749.43,268.81,743.66,268.81,737.9z"/>
			<path class="st1" d="M753.13,287.3c-1.07,50.34-46.46,94.63-96.5,94.15c-11.25-0.11-13.94-2.81-13.98-14.02
				c-0.2-49.98,44.08-95.15,94.54-96.45C750.75,270.62,753.43,273.36,753.13,287.3z"/>
			<path class="st1" d="M480.21,416.87c-0.22-27.81,9.12-50.14,26.39-69.25c7.33-8.11,13.38-7.92,20.84-0.13
				c35.2,36.75,35.51,97.96,0.69,135.12c-8.89,9.49-14.18,9.47-22.89-0.61C488.67,462.81,479.78,440.68,480.21,416.87z"/>
			<path class="st1" d="M465.83,614.3c24.6,0.19,46.86,8.76,65.74,25.87c9.86,8.93,9.82,12.97,0.49,21.98
				c-36.21,34.98-98.96,34.87-135.11-0.22c-8.47-8.22-8.56-13.3,0.36-21.46C416.42,623,439.02,614.37,465.83,614.3z"/>
			<path class="st1" d="M606.97,543.96c-24.09,0.24-46.19-8.69-65.16-25.62c-9.64-8.6-9.62-13.17-0.37-22.11
				c36.35-35.15,100-34.64,135.85,1.08c7.37,7.35,7.44,12.6-0.44,19.96C657.64,535.22,634.85,544.22,606.97,543.96z"/>
			<path class="st1" d="M532.88,542.15c29.57,0.38,51.2,8.8,69.83,24.86c10.61,9.15,10.69,14.29,0.8,23.66
				c-36.5,34.53-99.5,33.86-134.97-1.44c-7.65-7.61-7.89-12.6-0.12-19.96C487.83,550.89,511.19,542.29,532.88,542.15z"/>
			<path class="st1" d="M409.76,565.89c-0.2,20.53-9.2,42.97-26.89,61.85c-7.62,8.13-12.02,8.04-19.83,0.38
				c-36.2-35.5-35.96-101.76,0.32-137.46c6.93-6.83,12.86-6.34,19.24,0.5C400.82,510.7,409.87,533.78,409.76,565.89z"/>
			<path class="st1" d="M482.11,489.81c-0.71,24.17-9.18,46.92-27.08,65.78c-7.41,7.81-12.48,7.72-20.07,0.2
				c-35.93-35.59-35.79-101.12,0.3-136.92c7.55-7.49,12.48-7.51,20,0.65C473.11,438.89,481.77,461.95,482.11,489.81z"/>
		</g>
	</g>
</g>
<g id="Chocolates">
</g>
<g id="Culinarios">
</g>
<g id="Capa_6">
</g>
<g id="Capa_7">
</g>
<g id="Capa_8">
</g>
<g id="Capa_9">
</g>
<g id="Capa_10">
</g>
<g id="Cuentas_claves">
</g>
</svg>
