<?xml version="1.0" encoding="utf-8"?>
<!-- Generator: Adobe Illustrator 22.1.0, SVG Export Plug-In . SVG Version: 6.00 Build 0)  -->
<svg version="1.1" id="Capa_1" xmlns="http://www.w3.org/2000/svg" xmlns:xlink="http://www.w3.org/1999/xlink" x="0px" y="0px"
	 viewBox="0 0 55.8 71" style="enable-background:new 0 0 55.8 71;" xml:space="preserve">
<style type="text/css">
	.st0{fill:#E30B17;}
	.st1{fill:#FFFFFF;}
	.st2{fill:#00953B;}
	.st3{fill:#FFD100;}
	.st4{fill:#6ABF4B;}
	.st5{fill:#FF8300;}
	.st6{fill:#000B8C;}
	.st7{clip-path:url(#XMLID_2_);}
	.st8{fill:#BDAFDC;}
	.st9{clip-path:url(#XMLID_3_);}
	.st10{clip-path:url(#XMLID_5_);fill:#BDAFDC;}
	.st11{clip-path:url(#XMLID_10_);fill:#BDAFDC;}
	.st12{clip-path:url(#XMLID_11_);fill:#BDAFDC;}
	.st13{clip-path:url(#XMLID_12_);fill:#BDAFDC;}
	.st14{fill:#76BC21;}
	.st15{fill:#FAC283;}
	.st16{fill:none;}
	.st17{fill:#A896D1;}
</style>
<g>
	<g>
		<path class="st1" d="M50.4,32.3v-9.7C50.4,10.1,40.3,0,27.9,0S5.4,10.1,5.4,22.5v9.7C2.2,34.3,0,37.9,0,42v17.5
			C0,65.8,5.2,71,11.5,71h32.7c6.3,0,11.5-5.2,11.5-11.5V42C55.8,37.9,53.6,34.3,50.4,32.3z M27.9,57.6c-3.8,0-6.8-3-6.8-6.8
			c0-3.8,3-6.8,6.8-6.8s6.8,3,6.8,6.8C34.7,54.5,31.7,57.6,27.9,57.6z M41.7,30.4H14.1v-7.9c0-7.6,6.2-13.8,13.8-13.8
			s13.8,6.2,13.8,13.8V30.4z"/>
	</g>
</g>
</svg>
