<svg xmlns="http://www.w3.org/2000/svg" viewBox="0 0 30 30"><defs><style>.cls-1{fill:#fff;}</style></defs><title>Recurso 5</title><g id="Capa_2" data-name="Capa 2"><g id="Header"><path class="cls-1" d="M22.31,18.67l7.52,7.52a.68.68,0,0,1,0,.9l-2.74,2.73a.65.65,0,0,1-.9,0l-7.52-7.51a11.72,11.72,0,0,1-6.54,2A11.69,11.69,0,0,1,3.56,20.7,11.69,11.69,0,0,1,0,12.13,11.69,11.69,0,0,1,3.56,3.56,11.69,11.69,0,0,1,12.13,0,11.69,11.69,0,0,1,20.7,3.56a11.69,11.69,0,0,1,3.56,8.57A11.72,11.72,0,0,1,22.31,18.67ZM6.27,6.29a8,8,0,0,0-2.44,5.84A8,8,0,0,0,6.27,18a8,8,0,0,0,5.86,2.43A7.93,7.93,0,0,0,18,18a8,8,0,0,0,2.42-5.85A8,8,0,0,0,18,6.28a8,8,0,0,0-5.85-2.42A8,8,0,0,0,6.27,6.29Z"/></g></g></svg>