<?xml version="1.0" encoding="utf-8"?>
<!-- Generator: Adobe Illustrator 23.0.1, SVG Export Plug-In . SVG Version: 6.00 Build 0)  -->
<svg version="1.1" id="Contenido" xmlns="http://www.w3.org/2000/svg" xmlns:xlink="http://www.w3.org/1999/xlink" x="0px" y="0px"
	 viewBox="0 0 150 150" style="enable-background:new 0 0 150 150;" xml:space="preserve">
<style type="text/css">
	.st0{fill:#FFFFFF;}
	.st1{fill:#8C9091;}
	.st2{fill:#016CA4;}
</style>
<g>
	<g>
		
			<image style="overflow:visible;opacity:0.3;" width="227" height="226" xlink:href="27784ED908DB408.png"  transform="matrix(1 0 0 1 -38.5 -26)">
		</image>
		<g>
			<circle class="st0" cx="75" cy="75" r="71"/>
		</g>
	</g>
	<g>
		<g>
			<g>
				<path class="st1" d="M78.03,98.01c-0.12,0.14-0.19,0.31-0.19,0.59v7.71H77.8c0,0-4.22-7.52-4.42-7.87
					c-0.14-0.25-0.31-0.42-0.52-0.54c-0.21-0.12-0.43-0.2-0.86-0.2h-1.39c-0.32,0-0.53,0.11-0.67,0.28
					c-0.12,0.14-0.19,0.31-0.19,0.59v10.92c0,0.28,0.07,0.44,0.19,0.59c0.14,0.17,0.35,0.28,0.67,0.28h0.79
					c0.32,0,0.53-0.11,0.67-0.28c0.12-0.14,0.19-0.31,0.19-0.59v-7.89h0.04c0,0,4.38,7.76,4.56,8.05c0.25,0.41,0.66,0.71,1.26,0.71
					h1.35c0.32,0,0.53-0.11,0.67-0.28c0.12-0.14,0.19-0.31,0.19-0.59v-9.85h17.73c0.18,0,0.31-0.05,0.42-0.14
					c0.11-0.1,0.16-0.24,0.16-0.44v-0.75c0-0.2-0.05-0.34-0.16-0.44c-0.1-0.08-0.24-0.14-0.42-0.14H78.7
					C78.38,97.73,78.18,97.84,78.03,98.01L78.03,98.01L78.03,98.01z"/>
				<path class="st1" d="M94.88,100.93c-2.33,0-3.85,1.1-3.85,2.87c0,0.63,0.23,1.14,0.6,1.54c0.43,0.47,1.05,0.79,1.95,1.02
					l1.94,0.49c0.53,0.14,1.01,0.3,1.01,0.76c0,0.72-0.76,0.97-1.58,0.97c-0.4,0-0.81-0.08-1.15-0.25
					c-0.24-0.12-0.44-0.29-0.59-0.52c-0.13-0.2-0.17-0.34-0.37-0.45c-0.12-0.07-0.26-0.08-0.46-0.08h-1.05
					c-0.23,0-0.34,0.07-0.42,0.16c-0.08,0.09-0.1,0.23-0.1,0.36c0,0.34,0.12,0.76,0.4,1.15c0.65,0.87,1.99,1.56,3.72,1.56
					c1.7,0,4.05-0.7,4.05-2.98c0-0.59-0.17-1.09-0.48-1.49c-0.4-0.52-0.97-0.87-1.94-1.12l-1.93-0.49c-0.8-0.2-1.17-0.35-1.17-0.84
					c0-0.48,0.42-0.86,1.41-0.86c0.58,0,1.1,0.13,1.44,0.48c0.28,0.3,0.23,0.45,0.45,0.57c0.14,0.07,0.29,0.07,0.53,0.07h0.96
					c0.15,0,0.26-0.03,0.35-0.12c0.07-0.08,0.11-0.2,0.11-0.39c0-0.44-0.29-1.01-0.8-1.44C97.24,101.32,96.17,100.93,94.88,100.93
					L94.88,100.93L94.88,100.93z"/>
				<path class="st1" d="M100.17,101.26h-0.48c-0.18,0-0.31,0.05-0.42,0.14c-0.11,0.1-0.16,0.24-0.16,0.44v0.59
					c0,0.2,0.05,0.34,0.16,0.44c0.1,0.08,0.24,0.14,0.42,0.14h0.48v4.24c0,1.09,0.3,1.77,0.85,2.31c0.51,0.5,1.17,0.81,2.33,0.81
					h0.72c0.18,0,0.31-0.05,0.42-0.14c0.11-0.1,0.18-0.24,0.18-0.44v-0.74c0-0.2-0.07-0.34-0.18-0.44c-0.1-0.08-0.24-0.14-0.42-0.14
					h-0.1c-0.46,0-0.77-0.12-0.98-0.32c-0.25-0.24-0.38-0.6-0.38-1.08V103h1.55c0.18,0,0.31-0.05,0.42-0.14
					c0.11-0.1,0.16-0.24,0.16-0.44v-0.59c0-0.2-0.05-0.34-0.16-0.44c-0.1-0.08-0.24-0.14-0.42-0.14h-1.54v-2.77
					c0-0.22-0.07-0.38-0.17-0.51c-0.13-0.15-0.31-0.25-0.57-0.25h-0.96c-0.26,0-0.44,0.09-0.57,0.25c-0.1,0.13-0.17,0.29-0.17,0.51
					V101.26L100.17,101.26z"/>
				<path class="st1" d="M105.36,109.6c0,0.22,0.07,0.38,0.17,0.51c0.13,0.15,0.31,0.25,0.57,0.25h1.01c0.26,0,0.44-0.09,0.57-0.25
					c0.1-0.13,0.17-0.29,0.17-0.51V98.49c0-0.22-0.07-0.38-0.17-0.51c-0.13-0.15-0.31-0.25-0.57-0.25h-1.01
					c-0.26,0-0.44,0.09-0.57,0.25c-0.1,0.13-0.17,0.29-0.17,0.51V109.6L105.36,109.6z"/>
				<path class="st1" d="M90.13,106.27c0.14-0.14,0.21-0.33,0.21-0.7c0-1.11-0.35-2.27-1.08-3.15c-0.75-0.89-1.88-1.49-3.49-1.49
					c-2.94,0-4.6,2.3-4.6,4.73c0,2.59,1.77,4.86,4.62,4.86c1.42,0,2.81-0.53,3.61-1.48c0.35-0.41,0.63-0.98,0.63-1.32
					c0-0.12-0.03-0.22-0.09-0.3c-0.07-0.08-0.17-0.14-0.35-0.14h-1.37c-0.27,0-0.46,0.1-0.59,0.31c-0.4,0.59-0.98,0.89-1.82,0.89
					c-1.27,0-2.1-0.97-2.16-2.03h5.91C89.81,106.46,90,106.4,90.13,106.27z M83.66,104.65c0.11-1.04,0.91-1.82,2.12-1.82
					c1.19,0,2.01,0.78,2.12,1.82H83.66z"/>
				<path class="st1" d="M117.04,99.63c0.18,0,0.31-0.05,0.42-0.14c0.11-0.1,0.16-0.24,0.16-0.44v-0.79c0-0.31-0.06-0.46-0.16-0.57
					c-0.09-0.1-0.25-0.16-0.42-0.16c-0.14,0-0.27,0.02-0.5,0.04l-6.77,0.67c-0.2,0.02-0.29,0.08-0.36,0.15
					c-0.08,0.08-0.11,0.2-0.11,0.35v0.44c0,0.17,0.03,0.25,0.09,0.31c0.08,0.08,0.19,0.13,0.34,0.13H117.04L117.04,99.63z"/>
				<path class="st1" d="M117.67,106.27c0.14-0.14,0.21-0.33,0.21-0.7c0-1.11-0.35-2.27-1.08-3.15c-0.75-0.89-1.9-1.49-3.51-1.49
					c-2.95,0-4.6,2.3-4.6,4.73c0,2.59,1.77,4.86,4.62,4.86c1.42,0,2.81-0.53,3.61-1.48c0.35-0.41,0.63-0.98,0.63-1.32
					c0-0.12-0.03-0.22-0.09-0.3c-0.07-0.08-0.17-0.14-0.35-0.14h-1.37c-0.27,0-0.46,0.1-0.59,0.31c-0.4,0.59-0.98,0.89-1.82,0.89
					c-1.27,0-2.1-0.97-2.16-2.03h5.92C117.36,106.46,117.54,106.4,117.67,106.27z M111.18,104.65c0.11-1.04,0.91-1.82,2.12-1.82
					c1.19,0,2.01,0.78,2.12,1.82H111.18z"/>
			</g>
			<g>
				<path class="st1" d="M60.66,99.62c-2.18-3.25-4.09-4.35-4.63-4.86c-0.59-0.57-1.04-1.21-1.33-1.52
					c-0.64-0.7-1.46-1.56-2.82-1.56c-1.31,0-2.18,0.86-2.46,1.59c-0.08,0.21-0.15,0.47-0.2,0.56c-0.13,0.21-0.71,1.2-0.95,1.59h1.08
					l-0.53,1c0.61-0.13,1.05-0.23,1.64-0.23c0.52,0,0.9,0.12,1.06,0.45c0.3,0.61,0.3,2.45,0.82,3.84c0.48,1.31,1.65,2.58,2.97,3.56
					c0.02,0.01,0.03,0.02,0.06,0.02c0.06,0,0.11-0.05,0.11-0.09c0-0.04-0.01-0.06-0.04-0.09c-1.1-1.1-2-2.32-2.48-3.65
					c-0.47-1.3-0.4-3.13-0.81-3.94c-0.28-0.54-0.86-0.68-1.4-0.68c-0.43,0-0.84,0.09-1.02,0.13l0.47-0.8h-0.8
					c0.17-0.3,0.35-0.57,0.43-0.74c0.08-0.14,0.11-0.32,0.2-0.56c0.3-0.77,0.98-1.25,1.86-1.25c1.1,0,1.75,0.71,2.38,1.42
					c0.29,0.33,0.77,1.01,1.33,1.52c0.38,0.35,1.11,0.74,2.23,1.9c0.64,0.67,1.39,1.53,2.18,2.69c2.83,4.14,4.68,7.79,5.72,10.64
					l-0.02,0.01c-2.97-2.01-5.54-3.92-7.61-6.27c-1.47-1.67-2.75-3.6-3.86-6.07c-0.08-0.16-0.14-0.32-0.21-0.47
					c-0.03-0.06-0.06-0.08-0.11-0.08c-0.06,0-0.1,0.04-0.1,0.1c0,0.06,0.03,0.2,0.09,0.49c0.59,2.55,2.23,4.84,3.98,6.75
					c1.75,1.89,3.72,3.52,5.34,4.7l1.26,3.62c0.03,0.09,0.06,0.18,0.06,0.27c0,0.06-0.02,0.12-0.06,0.15
					c-0.04,0.04-0.08,0.05-0.19,0.05h-0.38c-0.16,0-0.23-0.02-0.29-0.07c-0.06-0.05-0.1-0.12-0.13-0.2
					c-0.11-0.34-0.78-2.24-0.91-2.63c-0.02-0.07-0.06-0.09-0.11-0.09c-0.06,0-0.1,0.05-0.1,0.1c0,0.05,0.02,0.1,0.05,0.26
					c0.17,0.87,0.37,1.84,0.45,2.21c0.04,0.17,0.08,0.33,0.08,0.45c0,0.11-0.02,0.16-0.11,0.25l-0.39,0.4
					c-0.09,0.09-0.15,0.12-0.22,0.12c-0.09,0-0.17-0.06-0.2-0.23c-0.45-2.08-1.12-4.66-1.29-5.37c-0.04-0.16-0.07-0.25-0.16-0.25
					c-0.08,0-0.11,0.06-0.11,0.13c0,0.05,0.01,0.12,0.02,0.16c0.11,0.74,0.53,3.43,1,5.88c0.08,0.42,0.24,0.66,0.6,0.66
					c0.16,0,0.32-0.06,0.47-0.2c0.24-0.24,0.31-0.3,0.6-0.59c0.2-0.2,0.35-0.28,0.7-0.28h0.87c0.2,0,0.32-0.05,0.42-0.15
					c0.09-0.09,0.15-0.21,0.15-0.39c0-0.18-0.05-0.33-0.11-0.51c-0.22-0.6-0.94-2.62-1.15-3.19l0.02-0.01
					c0.73,0.56,1.8,1.26,2.27,1.26c0.15,0,0.23-0.06,0.23-0.29C66.55,110.15,64.75,105.72,60.66,99.62L60.66,99.62L60.66,99.62z"/>
				<path class="st1" d="M40.56,92.81c0.12-0.27,0.39-0.46,0.71-0.46c0.44,0,0.79,0.34,0.79,0.79c0,0.26-0.12,0.49-0.32,0.63
					c0.04,0.15,0.07,0.29,0.07,0.42c0,0.49-0.29,0.84-0.83,1.02c-0.07,0.3-0.2,0.57-0.41,0.77c-0.35,0.34-0.71,0.34-0.71,0.48
					c0,0.08,0.05,0.12,0.2,0.12c0.65,0,1.29-0.36,1.36-0.97c0.62-0.21,1-0.84,1-1.34c0-0.13-0.01-0.24-0.06-0.35
					c0.17-0.16,0.37-0.45,0.37-0.86c0-0.36-0.16-0.73-0.44-1c-0.25-0.24-0.59-0.4-1-0.4c-0.59,0-0.97,0.32-1.18,0.63
					c-0.64,0-1.46,0.71-1.46,1.72h-0.09c-0.06-0.35-0.42-0.59-0.73-0.6c-0.25-0.74-0.8-1.37-1.72-1.37c-0.11,0-0.23,0.01-0.35,0.02
					c-0.27-0.25-0.57-0.4-0.98-0.4c-0.8,0-1.45,0.64-1.45,1.45c0,0.5,0.23,0.85,0.66,1.15c0,0-0.01,0.06-0.01,0.09
					c0,0.64,0.7,1.65,1.75,1.65c0,0.16,0.2,0.39,0.43,0.43v0.08h-0.09c-1.43,0-2.04,0.69-2.04,1.15c-0.43,0.18-0.7,0.65-0.7,1.09
					c0,0.87,0.64,1.49,1.48,1.49c0.28,0,0.57-0.11,0.77-0.26c0.15,0.05,0.33,0.08,0.53,0.08c0.4,0,0.86-0.14,1.17-0.6
					c0.05,0.01,0.09,0.01,0.13,0.01c0.52,0,0.96-0.34,1.19-0.78c0.06-0.11,0.08-0.2,0.08-0.26c0-0.06-0.03-0.12-0.09-0.12
					c-0.08,0-0.09,0.08-0.24,0.21c-0.33,0.3-0.83,0.41-1.35,0.41c-0.25,0.37-0.56,0.56-0.92,0.56c-0.26,0-0.47-0.07-0.68-0.21
					c-0.17,0.19-0.38,0.26-0.59,0.26c-0.46,0-0.79-0.32-0.79-0.79c0-0.33,0.21-0.62,0.5-0.73c0.05-0.58,0.67-0.97,1.45-0.97
					c0.1,0,0.2,0.01,0.3,0.02c0.12-0.19,0.4-0.39,0.8-0.44c0.08-0.01,0.15-0.02,0.19-0.04c0.05-0.02,0.07-0.07,0.07-0.12
					c0-0.05-0.02-0.09-0.06-0.12c-0.04-0.02-0.11-0.04-0.19-0.05c-0.37-0.07-0.81-0.3-1.03-0.85c-0.88,0-1.53-0.71-1.53-1.51V93.9
					c-0.29-0.12-0.49-0.4-0.49-0.73c0-0.44,0.35-0.79,0.78-0.79c0.26,0,0.49,0.13,0.64,0.32c0.12-0.04,0.26-0.05,0.4-0.05
					c0.66,0,1.36,0.42,1.49,1.22c0.84,0.08,1.04,0.79,1.1,1.09c0.03,0.15,0.05,0.28,0.15,0.28c0.11,0,0.13-0.12,0.16-0.28
					c0.06-0.3,0.18-0.54,0.4-0.73C39.17,93.47,39.74,92.81,40.56,92.81L40.56,92.81L40.56,92.81z"/>
				<path class="st1" d="M42.26,97.4c-0.28,0.39-0.47,0.59-1.1,1.32c-0.83,0.98-1.26,1.77-1.98,3.53c0.12-0.01,0.29-0.02,0.47-0.02
					c0.09,0,0.17,0,0.29,0.01l0.09-0.19c0.4-0.87,0.95-2.04,1.71-2.94l0.26-0.31c0.78-0.92,1.27-1.46,1.58-2.72
					c0.11-0.45,0.19-0.84,0.49-1.13c0.27-0.26,0.61-0.37,0.95-0.37c0.29,0,0.51,0.07,0.83,0.2c0.29,0.12,0.39,0.15,0.7,0.15
					c0.11,0,0.18-0.01,0.25-0.01l-0.41,0.55l0.56,0.39c-0.7,0.2-1.07,0.88-1.19,1.19c-0.02,0.06-0.04,0.11-0.04,0.15
					c0,0.05,0.02,0.09,0.09,0.09c0.08,0,0.13-0.06,0.23-0.18c0.34-0.41,0.61-0.69,1.86-1.08l-0.88-0.67l0.67-0.98h-0.63
					c-0.4,0-0.66-0.01-1.01-0.16c-0.47-0.22-0.71-0.31-1.12-0.31c-0.51,0-0.97,0.18-1.35,0.53c-0.44,0.4-0.57,0.94-0.73,1.53
					C42.73,96.44,42.59,96.94,42.26,97.4L42.26,97.4L42.26,97.4z"/>
				<path class="st1" d="M43.61,101.39c-0.33,0.45-0.79,1.04-1.14,1.67c0.11,0.05,0.48,0.25,0.61,0.32c0.4-0.61,0.97-1.36,1.34-1.93
					c0.33-0.52,0.47-0.74,0.49-1.43c0.01-0.12,0.01-0.23,0.02-0.34c0.03-0.36,0.12-0.72,0.46-1.05c0.25-0.25,0.61-0.38,0.98-0.38
					c0.35,0,0.56,0.1,0.86,0.1c0.22,0,0.37-0.05,0.52-0.11l0.11-0.04l-0.27,0.64l0.63,0.26c-0.4,0.25-1.29,1.34-1.29,2.62
					c0,0.46,0.07,0.89,0.17,1.27c0.01,0.04,0.03,0.08,0.1,0.08c0.06,0,0.1-0.04,0.11-0.1l0.01-0.13c0.02-0.39,0.05-1.01,0.2-1.57
					c0.26-0.94,0.97-1.82,1.68-2.24l-1.01-0.44l0.43-1.06l-0.47,0.1c-0.29,0.06-0.5,0.11-0.75,0.11c-0.16,0-0.35-0.02-0.57-0.08
					c-0.17-0.04-0.35-0.08-0.61-0.08c-0.46,0-0.96,0.18-1.3,0.5c-0.62,0.59-0.66,1.23-0.7,1.8
					C44.16,100.65,44.02,100.84,43.61,101.39L43.61,101.39L43.61,101.39z"/>
				<path class="st1" d="M58.64,101.75c-0.04-0.05-0.08-0.08-0.12-0.08c-0.07,0-0.11,0.05-0.11,0.1c0,0.08,0.06,0.18,0.21,0.43
					c0.44,0.76,1,1.52,1.67,2.23c0.73,0.78,1.59,1.51,2.51,2.16l0.29,0.2c0.04,0.03,0.07,0.05,0.11,0.05c0.06,0,0.1-0.06,0.1-0.11
					c0-0.03-0.01-0.06-0.05-0.09c-0.86-0.78-1.77-1.73-2.64-2.64C59.94,103.28,59.24,102.52,58.64,101.75L58.64,101.75L58.64,101.75
					z"/>
				<path class="st1" d="M39.79,99.1c0.09-0.15,0.35-0.5,0.46-0.61c-0.45-0.91-1.19-1.79-1.51-2.13l-0.27,0.26
					C38.78,97.06,39.3,97.94,39.79,99.1L39.79,99.1L39.79,99.1z"/>
				<path class="st1" d="M35.5,93.81c-0.05-0.05-0.06-0.08-0.06-0.11c0-0.04,0.03-0.09,0.09-0.09c0.02,0,0.05,0.01,0.08,0.02
					c0.43,0.18,0.8,0.38,1.13,0.63c0.28,0.21,0.54,0.47,0.81,0.78l-0.25,0.28C36.99,95.07,36.01,94.24,35.5,93.81L35.5,93.81
					L35.5,93.81z"/>
				<path class="st1" d="M39.65,95.77l-0.32-0.19c0.2-0.49,0.46-0.93,0.76-1.27c0.21-0.24,0.41-0.43,0.63-0.63
					c0.05-0.04,0.08-0.08,0.13-0.08c0.06,0,0.1,0.05,0.1,0.09c0,0.02-0.01,0.05-0.04,0.09C40.56,94.35,39.87,95.45,39.65,95.77
					L39.65,95.77L39.65,95.77z"/>
				<path class="st1" d="M35.68,98.49c-0.08,0.03-0.11,0.05-0.15,0.05c-0.06,0-0.09-0.05-0.09-0.09c0-0.04,0.02-0.06,0.06-0.1
					c0.72-0.56,1.35-0.78,2.23-0.93l0.11,0.35L35.68,98.49L35.68,98.49z"/>
				<path class="st1" d="M50.7,93.94c0-0.2,0.11-0.57,0.49-0.57c0.13,0,0.25,0.03,0.35,0.08c0.14,0.06,0.23,0.16,0.23,0.26
					c0,0.11-0.11,0.21-0.26,0.34c-0.16,0.13-0.37,0.26-0.54,0.26C50.76,94.3,50.7,94.11,50.7,93.94L50.7,93.94L50.7,93.94z"/>
				<path class="st1" d="M44.76,95.65c0-0.25,0.15-0.53,0.45-0.53c0.13,0,0.28,0.05,0.39,0.16c0.06,0.06,0.09,0.12,0.09,0.19
					c0,0.14-0.14,0.28-0.29,0.37c-0.12,0.07-0.25,0.12-0.36,0.12C44.85,95.96,44.76,95.85,44.76,95.65L44.76,95.65L44.76,95.65z"/>
				<path class="st1" d="M46.13,99.27c0-0.06,0.01-0.13,0.03-0.2c0.05-0.15,0.15-0.3,0.39-0.3c0.11,0,0.23,0.03,0.33,0.1
					c0.09,0.06,0.12,0.13,0.12,0.21c0,0.25-0.42,0.54-0.63,0.54C46.23,99.62,46.13,99.48,46.13,99.27L46.13,99.27L46.13,99.27z"/>
				<path class="st1" d="M43.82,106.66c-0.79,0-1.14-0.37-1.14-0.85c0-0.83,1.46-1.65,2.77-2.15l0.34,0.44
					c-0.81,0.32-2.44,1.01-2.44,1.61c0,0.21,0.12,0.36,0.61,0.36c0.86,0,1.77-0.42,2.62-0.83c0.06-0.03,0.14-0.06,0.21-0.06
					c0.11,0,0.18,0.04,0.26,0.15l0.14,0.19C46.22,106.07,44.98,106.66,43.82,106.66L43.82,106.66L43.82,106.66z"/>
				<path class="st1" d="M46,106.88c-0.77,0.43-1.58,0.72-2.28,0.72c-0.79,0-1.49-0.34-2.08-1.22c-0.25-0.37-0.44-0.84-0.67-1.26
					c-0.28-0.49-0.59-0.76-1.12-0.76c-0.49,0-0.96,0.2-1.46,0.42l0.02,0.11c0.04,0.18,0.11,0.31,0.28,0.31
					c0.08,0,0.15-0.04,0.19-0.05c0.28-0.09,0.49-0.16,0.77-0.16c0.44,0,0.65,0.26,0.95,0.89l0.11,0.23
					c-0.3,0.11-1.02,0.16-1.55,0.16h-0.25l0.04,0.25c0.02,0.11,0.06,0.19,0.15,0.23c0.11,0.05,0.26,0.06,0.52,0.06
					c0.67,0,1.15-0.08,1.43-0.15c0.72,1.07,1.71,1.48,2.66,1.48c0.81,0,1.64-0.3,2.43-0.73L46,106.88L46,106.88z"/>
				<path class="st1" d="M46.8,107.14l-0.14-0.54c1.21-0.65,2.31-1.17,4.06-1.34c0.03,0.67-0.01,1.52,0.49,1.52
					c0.46,0,1.45-1.18,2.6-2.65c0.11,0.1,0.28,0.2,0.43,0.32l-0.29,0.38c-1.12,1.44-2.07,2.67-2.86,2.67
					c-0.73,0-1.01-0.86-1.02-1.51C48.95,106.11,47.89,106.49,46.8,107.14L46.8,107.14L46.8,107.14z"/>
				<path class="st1" d="M62.3,95.39c-0.46,0-0.59-0.25-0.59-0.61c0-0.74,0.46-1.8,0.76-2.4h-0.71c-0.37,0.71-1.82,3-2.61,3.95
					l0.45,0.49c0.42-0.47,0.88-1.26,1.39-2.05h0.09c0,0.04-0.01,0.09-0.01,0.13c0,0.66,0.34,1.15,1.18,1.15
					c0.52,0,1.32-0.26,2.08-0.52c0.63-0.22,1.21-0.44,1.5-0.52v-0.7c-0.33,0.1-1,0.36-1.69,0.6C63.43,95.16,62.71,95.39,62.3,95.39
					L62.3,95.39L62.3,95.39z"/>
				<path class="st1" d="M63.86,97.51c0.7-0.3,1.96-0.8,2.69-1.07v-0.71c-1.46,0.54-4.02,1.6-5.76,2.55
					c0.05,0.06,0.35,0.49,0.39,0.54c0.74-0.3,1.4-0.5,2-0.5c0.84,0,1.52,0,2.67-0.27v-0.54c-0.64,0.12-1.33,0.26-1.77,0.26
					c-0.26,0-0.34-0.04-0.34-0.12C63.72,97.59,63.76,97.56,63.86,97.51L63.86,97.51L63.86,97.51z"/>
				<polygon class="st1" points="48.57,101.34 51.57,101.34 51.34,100.81 48.85,100.81 48.57,101.34 				"/>
				<path class="st1" d="M38.07,104.02c0.32,0,0.57-0.11,0.82-0.2c0.23-0.09,0.47-0.19,0.78-0.19c0.75,0,1.67,0.36,2.49,0.71
					c0.05,0.02,0.1,0.03,0.15,0.03c0.13,0,0.23-0.06,0.29-0.18l0.11-0.19c-0.9-0.52-2.32-1.08-3.07-1.08
					c-0.34,0-0.59,0.09-0.82,0.18c-0.26,0.11-0.49,0.22-0.73,0.22c-0.59,0-2.11-0.59-2.11-1.15c0-0.67,2.41-0.93,2.68-0.93
					l0.24-0.54c-1.75,0-3.84,0.61-3.84,1.43c0,0.23,0.13,0.35,0.13,0.57c0,0.29-0.13,0.49-0.13,0.82c0,0.22,0.13,0.49,0.28,0.73
					c0.16,0.25,0.36,0.42,0.36,0.63c0,0.16-0.11,0.35-0.11,0.71c0,0.79,0.45,1.27,1.33,2.21l0.18,0.19c-0.73,0.28-2.08,0.87-2.4,1
					c-1.1,0.46-1.37,1.01-1.37,1.89c0,0.34,0,0.73,0.02,1.07h0.21c0.44,0,0.49-0.26,0.49-0.52c0-0.17-0.01-0.36-0.01-0.57
					c0.01-0.49,0.02-0.92,0.81-1.27c0.32-0.14,1.87-0.77,3.02-1.27c0.34-0.15,0.66-0.27,1.01-0.27c0.39,0,0.84,0.17,1.41,0.5
					c0.47,0.28,0.97,0.66,1.36,1.1l0.5-0.38c-0.43-0.5-1.02-0.95-1.61-1.31c-0.59-0.35-1.12-0.56-1.56-0.56
					c-0.19,0-0.35,0.04-0.49,0.07c-0.16,0.04-0.3,0.09-0.49,0.09c-0.22,0-0.4-0.05-0.66-0.36c-0.1-0.11-0.73-0.83-0.87-1.04
					c-0.06-0.1-0.18-0.3-0.18-0.53c0-0.1,0.02-0.22,0.08-0.32c0.54,0.42,1.22,0.68,2.04,0.78l-0.11-0.56
					c-1.18-0.31-2.43-1.35-2.43-2.01c0-0.14,0.03-0.24,0.09-0.36C36.42,103.58,37.49,104.02,38.07,104.02L38.07,104.02L38.07,104.02
					z"/>
				<path class="st1" d="M46.5,104.13c0.74-0.52,1.5-0.58,2.11-0.58c0.37,0,0.8,0.05,1.26,0.11c0.37,0.05,0.7,0.08,1.1,0.08
					c0.8,0,1.61-0.29,1.96-0.45c0.1,0.12,0.27,0.29,0.4,0.4c-0.17,0.11-1.25,0.69-2.35,0.69c-0.49,0-0.95-0.06-1.35-0.11
					c-0.35-0.05-0.73-0.09-1.1-0.09c-0.4,0-1.22,0.12-1.72,0.36L46.5,104.13L46.5,104.13z"/>
				<path class="st1" d="M57.38,106.22c-0.88,1.85-2.21,3.2-3.58,3.98c-0.65,0.37-1.24,0.61-2.5,0.61h-2.74
					c-0.98,0-1.59,0.13-2.07,0.25c-0.52,0.13-0.84,0.27-1.36,0.27c-0.77,0-1.49-0.38-1.83-0.74l0.64-0.51l-0.32-0.43
					c-0.19,0.13-2.48,1.83-2.96,2.21l-0.03-0.02c0.01-0.12,0.01-0.22,0.01-0.33c0-1.29-0.6-1.6-1.51-1.96l-0.61,0.36
					c1.25,0.42,1.56,0.75,1.56,1.68c0,0.74-0.26,1.03-0.64,1.25c-0.39,0.23-0.88,0.33-1.31,0.33c-0.18,0-0.26,0.04-0.33,0.1
					c-0.07,0.07-0.11,0.18-0.11,0.32v0.2h0.15c0.78,0,1.51-0.12,2.31-0.75l2.59-2.03c0.37,0.42,1.3,1.01,2.4,1.01
					c0.62,0,1.02-0.15,1.59-0.3c0.45-0.11,0.88-0.21,1.83-0.21h2.75c1.41,0,2.08-0.29,2.83-0.71c1.63-0.91,3.02-2.46,3.8-4.23
					C57.73,106.45,57.54,106.33,57.38,106.22L57.38,106.22L57.38,106.22z"/>
				<path class="st1" d="M52.97,108.42c0.71-1.14,1.34-2.14,2.89-2.96c-0.16-0.1-0.4-0.25-0.52-0.33c-0.6,0.26-1.2,0.79-1.71,1.32
					c-1.17,1.22-1.07,1.92-2.3,2.4c-0.31,0.12-0.69,0.25-1.18,0.36c-0.29-0.88-1.01-1.76-1.77-1.76c-0.53,0-1.14,0.28-1.84,0.59
					c-0.83,0.36-1.58,0.78-1.82,0.94l0.32,0.43c0.25-0.13,0.95-0.49,1.66-0.79c0.61-0.26,1.17-0.48,1.55-0.48
					c0.6,0,1,0.69,1.21,1.24c-0.79,0.19-2.09,0.23-2.48,0.23c-0.18,0-0.25,0.03-0.31,0.08c-0.06,0.05-0.11,0.15-0.13,0.28l-0.05,0.2
					h0.42c2.19,0,4.26-0.35,5.59-1.15c0.19,0.05,0.35,0.09,0.56,0.09c0.76,0,1.55-0.42,2.04-0.8c0.18-0.13,0.22-0.26,0.22-0.39
					c0-0.06-0.01-0.12-0.01-0.18l-0.02-0.23c-0.7,0.56-1.29,0.97-2.01,0.97C53.14,108.45,53.04,108.44,52.97,108.42L52.97,108.42z"
					/>
			</g>
		</g>
		<g>
			<path class="st2" d="M92.85,84.47V42.15c0-1.05,0.85-1.9,1.9-1.9h16.06c0.53,0,1.17,0.07,1.91,0.22c0.74,0.14,1.52,0.41,2.34,0.8
				c0.82,0.39,1.64,0.92,2.46,1.6c0.82,0.68,1.56,1.55,2.21,2.61c0.98,1.6,1.65,3.69,2,6.27c0.35,2.58,0.52,5.8,0.52,9.66
				c0,2.3-0.04,4.62-0.12,6.98c-0.08,2.36-0.34,4.61-0.77,6.77c-0.43,2.15-1.13,4.1-2.09,5.84c-0.96,1.74-2.33,3.13-4.09,4.15
				c-0.94,0.57-1.98,0.92-3.11,1.05c-1.13,0.12-2.22,0.18-3.29,0.18H94.75C93.7,86.37,92.85,85.52,92.85,84.47z M105.21,79.61
				c1.93,0,3.43-0.28,4.52-0.83c1.09-0.55,1.91-1.51,2.46-2.86c0.55-1.35,0.89-3.15,1.01-5.38c0.12-2.23,0.18-5.01,0.18-8.33
				c0-2.71-0.08-5.02-0.25-6.95c-0.16-1.93-0.48-3.51-0.95-4.74c-0.47-1.23-1.12-2.12-1.94-2.68c-0.82-0.55-1.87-0.83-3.14-0.83
				h-3.76c-1.05,0-1.9,0.85-1.9,1.9v28.79c0,1.05,0.85,1.9,1.9,1.9H105.21z"/>
			<path class="st2" d="M56.4,70.14c-0.21-0.11-0.39-0.14-0.51-0.14c-1.42,0.11-2.62,0.4-3.61,0.77c-2.93,1.18-3.81,2.78-4.07,3.73
				c-0.03,0.26-0.06,0.52-0.1,0.78c0,0.01,0,0.02,0,0.02l0,0c0,0-0.09,1.7-0.94,3.25c-0.45,0.88-1.05,1.46-1.65,1.84
				c-0.44,0.28-0.95,0.49-1.55,0.6c-0.1,0.02-0.19,0.03-0.28,0.05c0,0-0.01,0-0.01,0c-0.52,0.07-0.88,0.04-0.88,0.04
				c-2.76,0-5.01-2.24-5.01-5.01V49.84h0.04c0.3-2.48,2.4-4.41,4.97-4.41c1.23,0,2.36,0.45,3.23,1.18c0.17,0.11,0.32,0.24,0.45,0.39
				c0.37,0.41,0.67,0.89,0.9,1.42c0.01,0.02,0.02,0.05,0.03,0.07c0.1,0.23,0.19,0.47,0.26,0.73c0.25,0.86,0.4,1.78,0.46,2.77
				c0.03,0.52,0.07,1,0.11,1.45c0.05,0.64,0.59,1.13,1.23,1.13h6.15c0.69,0,1.26-0.57,1.24-1.26c0-0.16-0.01-0.33-0.02-0.49
				c-0.04-0.59-0.1-1.18-0.18-1.75c-0.61-7.83-4.82-11.81-12.61-11.93c-3.44,0-6.15,0.51-8.12,1.54c-1.97,1.03-3.45,2.45-4.46,4.27
				c-1.01,1.82-1.65,3.99-1.94,6.49c-0.29,2.5-0.47,5.23-0.55,8.18v6.58c0,3.08,0.12,5.91,0.37,8.52c0.25,2.6,0.87,4.85,1.88,6.73
				c1,1.89,2.51,3.36,4.52,4.43c2.01,1.07,4.78,1.6,8.3,1.6c2.38,0,4.37-0.38,5.97-1.14c1.6-0.76,2.89-1.8,3.88-3.14
				c0.98-1.33,1.7-2.91,2.15-4.74c0.45-1.82,0.74-3.78,0.86-5.87c0.04-0.45,0.07-0.89,0.09-1.32c0,0,0-0.01,0-0.01
				C57.01,70.79,56.77,70.37,56.4,70.14z"/>
			<path class="st1" d="M75.49,53.77l3.79,2.56c0.22,0.14,0.45,0.29,0.59,0.4l7.92,5.34c0.43,0.29,1.01,0.02,1.06-0.49
				c0.06-0.57,0.09-1.17,0.09-1.78c0-2.01-0.28-3.76-0.83-5.26c-0.55-1.48-1.55-2.93-3-4.36c-0.03-0.03-0.06-0.05-0.09-0.08
				l-22.95-16.1c-0.42-0.3-1-0.04-1.07,0.47c-0.1,0.77-0.15,1.58-0.15,2.44c0,2.54,0.74,4.9,2.21,7.07
				c0.86,1.15,1.85,2.18,2.95,3.11c1.11,0.92,2.26,1.79,3.47,2.61c1.21,0.82,2.43,1.63,3.66,2.43
				C73.95,52.67,74.73,53.21,75.49,53.77z"/>
			<path class="st2" d="M88.86,72.37c0-0.02,0-0.03,0-0.05c-0.31-5.37-3.77-8.37-3.77-8.37l-5.79-3.92c-0.44-0.3-0.88-0.6-1.32-0.89
				L62.61,48.76c-1.21-0.82-1.6,0.41-1.71,1.17c-0.03,0.45-0.05,0.91-0.05,1.39c0,2.54,0.74,4.9,2.21,7.07
				c0.86,1.15,1.85,2.18,2.95,3.11c1.11,0.92,2.26,1.79,3.47,2.61c1.21,0.82,2.43,1.63,3.66,2.43c1.23,0.8,2.4,1.63,3.51,2.49
				c1.11,0.78,1.96,1.65,2.55,2.61c0.59,0.96,0.89,2.12,0.89,3.47c0,0.13-0.01,0.26-0.01,0.38c0,0.02,0,0.04,0,0.05
				c0,0.42-0.05,0.83-0.14,1.22c-0.04,0.18-0.08,0.36-0.13,0.53c0,0.01,0,0.02-0.01,0.03c-1.12,3.84-5.06,3.56-5.06,3.56
				c-2.38,0-4.39-1.55-5.08-3.7l0,0c0-0.01,0-0.01,0-0.02c-0.1-0.3-0.16-0.62-0.21-0.94c-1.3-5.15-4.85-6.04-6.53-6.17h-0.75
				c-0.8,0-1.45,0.65-1.45,1.45v1.93c0,2.05,0.25,3.94,0.74,5.66c0.49,1.72,1.29,3.2,2.4,4.43c1.11,1.23,2.55,2.19,4.34,2.89
				c1.78,0.7,3.97,1.05,6.55,1.05c2.09,0,4.01-0.29,5.75-0.86c1.74-0.57,3.24-1.41,4.49-2.52c1.25-1.11,2.22-2.49,2.92-4.15
				c0.7-1.66,1.05-3.58,1.05-5.75C88.95,73.56,88.91,72.95,88.86,72.37z"/>
		</g>
	</g>
</g>
</svg>
