<?xml version="1.0" encoding="utf-8"?>
<!-- Generator: Adobe Illustrator 23.0.1, SVG Export Plug-In . SVG Version: 6.00 Build 0)  -->
<svg version="1.1" id="Capa_1" xmlns="http://www.w3.org/2000/svg" xmlns:xlink="http://www.w3.org/1999/xlink" x="0px" y="0px"
	 viewBox="0 0 150 150" style="enable-background:new 0 0 150 150;" xml:space="preserve">
<style type="text/css">
	.st0{fill:#989898;}
	.st1{fill:#525252;}
	.st2{fill:#FFFFFF;}
</style>
<g>
	<path class="st2" d="M123.09,57.03c-9.77-14.58-18.37-19.5-20.79-21.81c-2.65-2.55-4.68-5.44-5.97-6.83
		c-2.86-3.13-6.57-6.99-12.67-6.99c-5.89,0-9.77,3.84-11.04,7.15c-0.37,0.95-0.66,2.1-0.92,2.52c-0.58,0.95-3.18,5.39-4.26,7.15
		h4.86l-2.36,4.47c2.76-0.6,4.73-1.05,7.36-1.05c2.34,0,4.02,0.55,4.76,2.02c1.37,2.73,1.37,11.01,3.68,17.24
		c2.16,5.86,7.41,11.59,13.32,15.98c0.08,0.05,0.16,0.08,0.26,0.08c0.29,0,0.47-0.21,0.47-0.42c0-0.16-0.05-0.26-0.18-0.39
		c-4.94-4.94-8.96-10.41-11.12-16.4c-2.13-5.83-1.79-14.03-3.65-17.69C83.62,39.63,80.99,39,78.57,39c-1.94,0-3.76,0.39-4.6,0.58
		l2.13-3.6h-3.6c0.76-1.34,1.55-2.58,1.95-3.31c0.34-0.63,0.47-1.42,0.89-2.5c1.37-3.44,4.39-5.62,8.33-5.62
		c4.94,0,7.83,3.18,10.69,6.36c1.31,1.47,3.47,4.55,5.97,6.83c1.71,1.58,4.97,3.34,9.99,8.51c2.89,3,6.26,6.88,9.8,12.09
		c12.69,18.58,21.02,34.95,25.68,47.72l-0.08,0.05c-13.32-9.04-24.86-17.58-34.16-28.12c-6.6-7.49-12.32-16.16-17.32-27.22
		c-0.34-0.74-0.63-1.42-0.95-2.13c-0.13-0.29-0.26-0.37-0.47-0.37c-0.26,0-0.45,0.18-0.45,0.45c0,0.29,0.13,0.92,0.42,2.18
		c2.65,11.46,10.01,21.73,17.87,30.27c7.83,8.49,16.69,15.79,23.97,21.1l5.67,16.24c0.13,0.39,0.29,0.81,0.29,1.21
		c0,0.29-0.08,0.53-0.26,0.68c-0.16,0.16-0.37,0.24-0.84,0.24h-1.71c-0.74,0-1.03-0.11-1.29-0.32c-0.26-0.21-0.45-0.53-0.58-0.89
		c-0.5-1.52-3.49-10.06-4.07-11.8c-0.11-0.32-0.29-0.42-0.5-0.42c-0.26,0-0.45,0.21-0.45,0.45c0,0.21,0.08,0.45,0.21,1.18
		c0.76,3.89,1.66,8.25,2.02,9.91c0.16,0.76,0.34,1.47,0.34,2c0,0.47-0.1,0.74-0.5,1.13l-1.76,1.79c-0.42,0.42-0.66,0.53-1,0.53
		c-0.42,0-0.76-0.29-0.92-1.02c-2-9.33-5.02-20.89-5.81-24.1c-0.18-0.71-0.32-1.1-0.74-1.1c-0.37,0-0.5,0.26-0.5,0.58
		c0,0.24,0.05,0.53,0.08,0.74c0.47,3.31,2.39,15.37,4.47,26.38c0.37,1.89,1.08,2.94,2.71,2.94c0.74,0,1.44-0.29,2.1-0.92
		c1.08-1.08,1.39-1.37,2.68-2.63c0.92-0.89,1.55-1.26,3.13-1.26h3.89c0.92,0,1.42-0.24,1.87-0.66c0.42-0.39,0.68-0.95,0.68-1.73
		c0-0.82-0.21-1.47-0.5-2.29c-1-2.68-4.2-11.75-5.15-14.3l0.08-0.05c3.28,2.5,8.07,5.68,10.17,5.68c0.66,0,1.05-0.29,1.05-1.31
		C149.5,104.3,141.46,84.41,123.09,57.03L123.09,57.03L123.09,57.03z"/>
	<path class="st2" d="M32.88,26.49c0.55-1.21,1.76-2.05,3.2-2.05c1.97,0,3.55,1.52,3.55,3.55c0,1.18-0.55,2.21-1.42,2.84
		c0.19,0.68,0.32,1.29,0.32,1.87c0,2.21-1.31,3.76-3.73,4.57c-0.32,1.34-0.89,2.55-1.84,3.44c-1.58,1.52-3.18,1.52-3.18,2.15
		c0,0.34,0.24,0.55,0.89,0.55c2.92,0,5.78-1.63,6.12-4.34c2.79-0.95,4.47-3.76,4.47-5.99c0-0.58-0.05-1.08-0.29-1.55
		c0.76-0.74,1.66-2,1.66-3.86c0-1.63-0.71-3.29-1.97-4.49c-1.11-1.08-2.65-1.79-4.47-1.79c-2.63,0-4.34,1.42-5.31,2.81
		c-2.86,0-6.57,3.18-6.57,7.73h-0.39c-0.26-1.58-1.89-2.63-3.26-2.71c-1.1-3.31-3.6-6.15-7.7-6.15c-0.47,0-1.05,0.03-1.55,0.11
		c-1.21-1.1-2.55-1.79-4.42-1.79c-3.57,0-6.49,2.86-6.49,6.49c0,2.26,1.03,3.81,2.97,5.18c0,0-0.03,0.29-0.03,0.42
		c0,2.89,3.15,7.41,7.83,7.41c0,0.74,0.92,1.73,1.95,1.92v0.37h-0.39c-6.44,0-9.17,3.1-9.17,5.18c-1.92,0.79-3.15,2.92-3.15,4.89
		c0,3.92,2.86,6.7,6.65,6.7c1.26,0,2.55-0.5,3.44-1.18c0.66,0.24,1.5,0.37,2.36,0.37c1.81,0,3.84-0.63,5.26-2.71
		c0.21,0.03,0.39,0.03,0.6,0.03c2.31,0,4.31-1.52,5.36-3.52c0.26-0.5,0.37-0.89,0.37-1.18c0-0.29-0.13-0.53-0.42-0.53
		c-0.37,0-0.42,0.34-1.08,0.95C21.57,53.5,19.31,54,17,54c-1.13,1.66-2.52,2.52-4.13,2.52c-1.18,0-2.1-0.32-3.05-0.95
		c-0.76,0.84-1.71,1.18-2.63,1.18c-2.07,0-3.55-1.45-3.55-3.55c0-1.47,0.95-2.79,2.26-3.28c0.24-2.6,3.02-4.36,6.49-4.36
		c0.45,0,0.89,0.03,1.37,0.08c0.53-0.84,1.79-1.73,3.57-1.97c0.37-0.05,0.66-0.08,0.87-0.18c0.21-0.1,0.31-0.31,0.31-0.55
		c0-0.21-0.08-0.39-0.29-0.53c-0.18-0.11-0.5-0.16-0.87-0.24c-1.66-0.32-3.63-1.34-4.62-3.84c-3.97,0-6.89-3.18-6.89-6.75v-0.24
		c-1.31-0.53-2.21-1.79-2.21-3.29c0-1.97,1.55-3.55,3.52-3.55c1.18,0,2.21,0.58,2.87,1.45c0.55-0.16,1.18-0.21,1.79-0.21
		c2.94,0,6.1,1.87,6.7,5.49c3.78,0.34,4.68,3.55,4.91,4.89c0.13,0.68,0.24,1.26,0.68,1.26c0.47,0,0.58-0.53,0.74-1.24
		c0.29-1.34,0.79-2.42,1.79-3.26C26.65,29.46,29.22,26.49,32.88,26.49L32.88,26.49L32.88,26.49z"/>
	<path class="st2" d="M40.52,47.09c-1.24,1.76-2.13,2.63-4.94,5.94c-3.71,4.39-5.65,7.94-8.88,15.82c0.53-0.05,1.29-0.1,2.13-0.1
		c0.42,0,0.76,0,1.31,0.03l0.39-0.84c1.81-3.89,4.26-9.14,7.67-13.19l1.18-1.39c3.52-4.13,5.7-6.57,7.07-12.19
		c0.47-2,0.87-3.78,2.21-5.07c1.21-1.16,2.73-1.66,4.28-1.66c1.31,0,2.29,0.32,3.71,0.92C57.94,35.9,58.42,36,59.78,36
		c0.47,0,0.82-0.03,1.13-0.05l-1.84,2.47l2.49,1.76c-3.13,0.92-4.78,3.94-5.33,5.33c-0.11,0.29-0.16,0.47-0.16,0.66
		c0,0.21,0.1,0.42,0.42,0.42c0.34,0,0.6-0.26,1.05-0.79c1.53-1.84,2.73-3.1,8.36-4.86l-3.97-3l3-4.39h-2.81
		c-1.79,0-2.97-0.03-4.52-0.74c-2.1-0.97-3.18-1.39-5.05-1.39c-2.29,0-4.36,0.82-6.07,2.39c-1.97,1.81-2.58,4.23-3.29,6.89
		C42.65,42.76,41.99,45.02,40.52,47.09L40.52,47.09L40.52,47.09z"/>
	<path class="st2" d="M46.57,64.99c-1.5,2.02-3.55,4.68-5.12,7.49c0.5,0.24,2.15,1.13,2.73,1.45c1.81-2.73,4.34-6.1,5.99-8.65
		c1.5-2.31,2.1-3.31,2.21-6.41c0.03-0.53,0.03-1.02,0.08-1.52c0.13-1.6,0.55-3.23,2.08-4.73c1.13-1.13,2.76-1.71,4.39-1.71
		c1.58,0,2.5,0.45,3.86,0.45c0.97,0,1.68-0.24,2.31-0.47l0.5-0.18l-1.21,2.89l2.84,1.16c-1.81,1.13-5.78,5.99-5.78,11.75
		c0,2.08,0.32,3.99,0.76,5.7c0.05,0.18,0.16,0.37,0.45,0.37c0.26,0,0.45-0.16,0.47-0.45l0.03-0.6c0.08-1.76,0.21-4.55,0.92-7.04
		c1.18-4.2,4.36-8.15,7.54-10.04l-4.52-1.97l1.95-4.76l-2.13,0.45c-1.29,0.26-2.23,0.5-3.36,0.5c-0.74,0-1.58-0.1-2.58-0.34
		c-0.76-0.18-1.58-0.34-2.73-0.34c-2.08,0-4.31,0.79-5.83,2.26c-2.78,2.65-2.94,5.52-3.13,8.07C49.04,61.68,48.41,62.52,46.57,64.99
		L46.57,64.99L46.57,64.99z"/>
	<path class="st2" d="M114,66.59c-0.18-0.24-0.34-0.34-0.55-0.34c-0.31,0-0.47,0.21-0.47,0.45c0,0.37,0.26,0.81,0.92,1.92
		c2,3.39,4.47,6.81,7.51,10.01c3.29,3.49,7.15,6.75,11.27,9.67l1.29,0.89c0.18,0.13,0.31,0.21,0.47,0.21c0.26,0,0.45-0.26,0.45-0.47
		c0-0.13-0.05-0.26-0.21-0.39c-3.84-3.5-7.96-7.75-11.83-11.85C119.83,73.45,116.73,70.03,114,66.59L114,66.59L114,66.59z"/>
	<path class="st2" d="M29.43,54.69c0.39-0.66,1.58-2.26,2.05-2.76c-2.02-4.1-5.33-8.02-6.78-9.57l-1.21,1.18
		C24.89,45.57,27.23,49.48,29.43,54.69L29.43,54.69L29.43,54.69z"/>
	<path class="st2" d="M10.17,30.96c-0.24-0.21-0.29-0.34-0.29-0.5c0-0.18,0.13-0.39,0.42-0.39c0.1,0,0.21,0.03,0.34,0.08
		c1.94,0.79,3.6,1.71,5.07,2.84c1.24,0.95,2.45,2.1,3.63,3.49l-1.1,1.26C16.87,36.61,12.46,32.9,10.17,30.96L10.17,30.96
		L10.17,30.96z"/>
	<path class="st2" d="M28.8,39.76l-1.42-0.87c0.92-2.18,2.05-4.18,3.39-5.68c0.95-1.08,1.84-1.94,2.84-2.81
		c0.24-0.18,0.37-0.34,0.6-0.34c0.26,0,0.45,0.21,0.45,0.42c0,0.11-0.05,0.24-0.16,0.39C32.9,33.37,29.77,38.32,28.8,39.76
		L28.8,39.76L28.8,39.76z"/>
	<path class="st2" d="M10.99,51.95c-0.34,0.13-0.5,0.21-0.68,0.21c-0.29,0-0.42-0.24-0.42-0.42c0-0.18,0.08-0.29,0.26-0.45
		c3.23-2.52,6.07-3.52,9.99-4.18l0.47,1.58L10.99,51.95L10.99,51.95z"/>
	<path class="st2" d="M78.39,31.56c0-0.92,0.47-2.57,2.18-2.57c0.58,0,1.13,0.13,1.58,0.34c0.63,0.29,1.05,0.71,1.05,1.16
		c0,0.47-0.47,0.95-1.18,1.52c-0.74,0.6-1.68,1.16-2.45,1.16C78.65,33.16,78.39,32.3,78.39,31.56L78.39,31.56L78.39,31.56z"/>
	<path class="st2" d="M51.72,39.23c0-1.13,0.68-2.36,2-2.36c0.58,0,1.26,0.24,1.76,0.71c0.29,0.26,0.42,0.55,0.42,0.84
		c0,0.63-0.61,1.24-1.31,1.66c-0.55,0.32-1.13,0.53-1.63,0.53C52.14,40.6,51.72,40.1,51.72,39.23L51.72,39.23L51.72,39.23z"/>
	<path class="st2" d="M57.89,55.45c0-0.26,0.03-0.58,0.13-0.89c0.21-0.68,0.66-1.34,1.76-1.34c0.5,0,1.05,0.13,1.5,0.45
		c0.39,0.26,0.55,0.6,0.55,0.95c0,1.13-1.89,2.44-2.84,2.44C58.31,57.05,57.89,56.39,57.89,55.45L57.89,55.45L57.89,55.45z"/>
	<path class="st2" d="M47.54,88.61c-3.55,0-5.12-1.68-5.12-3.81c0-3.73,6.54-7.38,12.43-9.64l1.53,1.97
		c-3.63,1.45-10.93,4.55-10.93,7.23c0,0.95,0.55,1.63,2.76,1.63c3.84,0,7.96-1.87,11.77-3.73c0.29-0.13,0.63-0.26,0.95-0.26
		c0.5,0,0.82,0.16,1.18,0.68l0.63,0.87C58.29,85.98,52.74,88.61,47.54,88.61L47.54,88.61L47.54,88.61z"/>
	<path class="st2" d="M57.31,89.61c-3.47,1.94-7.07,3.23-10.25,3.23c-3.55,0-6.7-1.52-9.33-5.49c-1.1-1.68-1.97-3.78-3.02-5.65
		c-1.26-2.21-2.63-3.39-5.02-3.39c-2.18,0-4.31,0.89-6.57,1.87l0.1,0.5c0.18,0.81,0.5,1.39,1.26,1.39c0.34,0,0.68-0.16,0.87-0.21
		c1.26-0.39,2.18-0.74,3.47-0.74c1.97,0,2.92,1.16,4.26,3.99l0.5,1.05c-1.37,0.47-4.57,0.71-6.96,0.71h-1.13l0.18,1.13
		c0.08,0.47,0.26,0.87,0.66,1.05c0.47,0.24,1.15,0.26,2.34,0.26c3,0,5.18-0.37,6.44-0.68c3.23,4.81,7.67,6.65,11.96,6.65
		c3.65,0,7.36-1.34,10.9-3.29L57.31,89.61L57.31,89.61z"/>
	<path class="st2" d="M60.89,90.79l-0.63-2.42c5.41-2.92,10.35-5.26,18.24-6.02c0.16,3.02-0.05,6.83,2.18,6.83
		c2.05,0,6.52-5.28,11.67-11.9c0.47,0.45,1.23,0.92,1.92,1.45l-1.31,1.71c-5.02,6.46-9.3,11.98-12.82,11.98
		c-3.29,0-4.52-3.86-4.57-6.75C70.53,86.17,65.8,87.85,60.89,90.79L60.89,90.79L60.89,90.79z"/>
	<path class="st2" d="M130.42,38.05c-2.05,0-2.63-1.13-2.63-2.73c0-3.31,2.08-8.07,3.39-10.77H128
		c-1.66,3.21-8.17,13.48-11.69,17.74l2.02,2.18c1.89-2.1,3.97-5.68,6.23-9.2h0.42c0,0.18-0.03,0.39-0.03,0.58
		c0,2.97,1.53,5.18,5.28,5.18c2.31,0,5.94-1.16,9.36-2.31c2.84-0.97,5.44-1.97,6.73-2.34v-3.15c-1.47,0.45-4.47,1.6-7.57,2.68
		C135.49,37.03,132.29,38.05,130.42,38.05L130.42,38.05L130.42,38.05z"/>
	<path class="st2" d="M137.44,47.59c3.15-1.34,8.8-3.6,12.06-4.78V39.6c-6.54,2.42-18.03,7.17-25.86,11.43
		c0.21,0.26,1.58,2.18,1.73,2.42c3.31-1.37,6.28-2.26,8.96-2.26c3.76,0,6.83,0,11.98-1.21v-2.42c-2.89,0.53-5.97,1.16-7.96,1.16
		c-1.18,0-1.52-0.16-1.52-0.55C136.83,47.93,136.99,47.78,137.44,47.59L137.44,47.59L137.44,47.59z"/>
	<polygon class="st2" points="68.85,64.78 82.28,64.78 81.28,62.36 70.11,62.36 68.85,64.78 	"/>
	<path class="st2" d="M21.73,76.79c1.42,0,2.57-0.47,3.68-0.92c1.05-0.42,2.1-0.84,3.52-0.84c3.36,0,7.51,1.63,11.17,3.18
		c0.21,0.08,0.45,0.13,0.68,0.13c0.58,0,1.02-0.26,1.31-0.81l0.47-0.87c-4.02-2.34-10.43-4.84-13.77-4.84
		c-1.52,0-2.63,0.39-3.68,0.82c-1.18,0.47-2.21,0.97-3.28,0.97c-2.65,0-9.46-2.63-9.46-5.18c0-3,10.83-4.15,12.01-4.15l1.08-2.44
		c-7.86,0-17.21,2.76-17.21,6.41c0,1.05,0.6,1.58,0.6,2.55c0,1.31-0.6,2.21-0.6,3.68c0,0.97,0.58,2.21,1.26,3.29
		c0.74,1.13,1.6,1.87,1.6,2.81c0,0.71-0.47,1.55-0.47,3.21c0,3.55,2.02,5.7,5.96,9.93l0.79,0.84c-3.26,1.26-9.33,3.89-10.75,4.49
		c-4.91,2.05-6.15,4.55-6.15,8.49c0,1.52,0,3.26,0.1,4.81h0.95c1.97,0,2.21-1.18,2.21-2.31c0-0.76-0.03-1.63-0.03-2.58
		c0.03-2.18,0.11-4.13,3.63-5.7c1.42-0.63,8.38-3.47,13.56-5.68c1.52-0.66,2.94-1.21,4.52-1.21c1.76,0,3.78,0.76,6.31,2.26
		c2.13,1.26,4.36,2.97,6.12,4.94l2.23-1.71c-1.92-2.26-4.57-4.28-7.23-5.86c-2.66-1.58-5.02-2.5-7.02-2.5
		c-0.87,0-1.58,0.16-2.18,0.32c-0.71,0.18-1.37,0.39-2.21,0.39c-0.97,0-1.79-0.24-2.97-1.6c-0.45-0.5-3.29-3.73-3.89-4.68
		c-0.29-0.45-0.82-1.34-0.82-2.39c0-0.45,0.08-0.97,0.34-1.44c2.44,1.89,5.47,3.05,9.14,3.5l-0.5-2.5
		c-5.28-1.39-10.9-6.04-10.9-9.04c0-0.63,0.16-1.08,0.39-1.63C14.32,74.82,19.13,76.79,21.73,76.79L21.73,76.79L21.73,76.79z"/>
	<path class="st2" d="M59.55,77.26c3.31-2.34,6.73-2.6,9.49-2.6c1.66,0,3.6,0.24,5.65,0.5c1.66,0.21,3.15,0.37,4.94,0.37
		c3.6,0,7.23-1.31,8.8-2c0.45,0.55,1.21,1.29,1.81,1.81c-0.76,0.47-5.6,3.1-10.54,3.1c-2.18,0-4.26-0.26-6.04-0.5
		c-1.58-0.21-3.28-0.39-4.94-0.39c-1.81,0-5.47,0.53-7.73,1.6L59.55,77.26L59.55,77.26z"/>
	<path class="st2" d="M108.35,86.64c-3.94,8.3-9.93,14.35-16.08,17.84c-2.92,1.66-5.55,2.73-11.22,2.73H68.77
		c-4.39,0-7.15,0.58-9.3,1.13c-2.31,0.6-3.79,1.21-6.12,1.21c-3.47,0-6.68-1.71-8.23-3.34l2.89-2.29l-1.44-1.92
		c-0.84,0.6-11.12,8.2-13.27,9.91l-0.13-0.08c0.05-0.53,0.05-1,0.05-1.47c0-5.78-2.68-7.17-6.75-8.8l-2.76,1.63
		c5.6,1.87,6.99,3.36,6.99,7.54c0,3.31-1.18,4.62-2.89,5.62c-1.76,1.02-3.94,1.5-5.86,1.5c-0.82,0-1.18,0.16-1.47,0.45
		c-0.32,0.32-0.47,0.79-0.47,1.45v0.92h0.66c3.52,0,6.78-0.55,10.35-3.36l11.64-9.09c1.66,1.89,5.83,4.52,10.77,4.52
		c2.78,0,4.57-0.68,7.15-1.34c2-0.5,3.94-0.95,8.2-0.95H81.1c6.31,0,9.36-1.31,12.72-3.21c7.3-4.1,13.53-11.04,17.05-19
		C109.95,87.67,109.08,87.14,108.35,86.64L108.35,86.64L108.35,86.64z"/>
	<path class="st2" d="M88.56,96.52c3.18-5.1,6.02-9.62,12.98-13.3c-0.74-0.45-1.79-1.13-2.34-1.5c-2.71,1.18-5.39,3.55-7.67,5.94
		c-5.26,5.47-4.78,8.62-10.33,10.75c-1.39,0.53-3.1,1.1-5.28,1.6c-1.29-3.97-4.52-7.91-7.94-7.91c-2.37,0-5.1,1.24-8.25,2.63
		c-3.7,1.63-7.09,3.5-8.17,4.2l1.44,1.94c1.1-0.6,4.28-2.18,7.46-3.55c2.76-1.18,5.26-2.16,6.94-2.16c2.71,0,4.47,3.07,5.44,5.55
		c-3.55,0.84-9.38,1.05-11.14,1.05c-0.81,0-1.1,0.13-1.39,0.37c-0.26,0.24-0.47,0.66-0.6,1.24l-0.21,0.89h1.89
		c9.83,0,19.1-1.55,25.07-5.18c0.84,0.24,1.58,0.39,2.52,0.39c3.42,0,6.94-1.87,9.15-3.57c0.79-0.6,0.97-1.16,0.97-1.76
		c0-0.29-0.03-0.55-0.05-0.81l-0.1-1.02c-3.15,2.5-5.78,4.36-9.04,4.36C89.32,96.68,88.9,96.63,88.56,96.52L88.56,96.52z"/>
</g>
</svg>
